<?xml version="1.0" encoding="UTF-8"?>
<!-- Generator: Adobe Illustrator 20.1.0, SVG Export Plug-In . SVG Version: 6.00 Build 0)  -->
<svg version="1.1" id="Ebene_1" xmlns="http://www.w3.org/2000/svg" xmlns:xlink="http://www.w3.org/1999/xlink" x="0px" y="0px" viewBox="0 0 100 100" style="enable-background:new 0 0 100 100;" xml:space="preserve">
<g id="_x33_0x30_42_">
	<circle style="fill:#FFF500;" cx="50" cy="50" r="49"/>
	<polygon style="fill:#1F1A17;" points="53.498,17.5 48.353,17.5 47.169,13.396 37.698,13.396 39.044,9.349 61.053,9.349    62.302,13.396 52.328,13.396 52.328,13.396  "/>
	<polygon style="fill:#1F1A17;" points="73.799,90.615 72.549,86.571 64.819,86.571 64.819,82.511 60.655,82.511 60.655,86.571    39.323,86.571 39.323,82.511 35.159,82.511 35.159,86.571 27.547,86.571 26.192,90.615 73.799,90.615  "/>
	<path style="fill:#1F1A17;" d="M71.986,34.652c-1.565-4.186-5.788-11.306-9.262-12.638c-3.693-0.855-8.208-0.971-12.723-0.971   c-4.515,0-9.04,0.116-12.723,0.971c-3.484,1.332-7.694,8.452-9.262,12.638c-2.151,6.513-2.808,12.794-2.748,18.909   c0.033,5.227-0.278,12.078,4.727,18.684L35,78.227V78h29.819l5.109-5.981c5.006-6.606,4.76-13.344,4.807-18.571   C74.78,47.333,74.137,41.165,71.986,34.652z M68.714,55c0,0-12.259-0.703-18.723-0.716c-6.212-0.023-18.723,0.762-18.723,0.762   c-0.786-7.1,0.398-11.893,3.027-18.72c0,0,9.581-1.276,15.72-1.263c6.139,0.01,15.717,1.309,15.717,1.309   C68.362,43.154,69.529,47.924,68.714,55z"/>
</g>
<script xmlns=""/></svg>